<?xml version="1.0" standalone="no"?>
<!DOCTYPE svg PUBLIC "-//W3C//DTD SVG 1.1//EN" "http://www.w3.org/Graphics/SVG/1.1/DTD/svg11.dtd" >
<!--
2013-9-30: Created.
-->
<svg>
<metadata>
Created by iconfont
</metadata>
<defs>

<font id="iconfont" horiz-adv-x="1024" >
  <font-face
    font-family="iconfont"
    font-weight="500"
    font-stretch="normal"
    units-per-em="1024"
    ascent="896"
    descent="-128"
  />
    <missing-glyph />
    
    <glyph glyph-name="shoucang3" unicode="&#58938;" d="M707.584 802.816c-77.312 0-148.992-38.912-196.608-102.912-47.104 64-119.296 102.912-196.608 102.912-139.264 0-252.416-123.904-252.416-275.968 0-90.624 40.448-154.624 73.216-205.824C229.888 172.032 468.48-12.8 478.72-20.48c9.728-7.68 20.992-11.264 32.256-11.264s22.528 3.584 32.256 11.264c10.24 7.68 248.32 193.024 343.552 341.504 32.768 51.2 73.216 115.2 73.216 205.824 0 152.064-113.152 275.968-252.416 275.968z"  horiz-adv-x="1024" />

    
    <glyph glyph-name="shoucang2" unicode="&#58884;" d="M786.309939-107.349333c-11.093333 0-23.893333 3.754667-34.986666 9.216l-239.616 119.808L270.043273-98.133333c-23.893333-12.970667-55.296-11.093333-77.482667 5.461333s-34.986667 46.08-29.525333 73.728l49.834666 258.048L23.088606 416.085333C2.779273 436.394667-4.559394 467.797333 2.779273 493.568c9.216 27.648 31.402667 47.957333 60.757333 51.541333l263.68 47.957334L445.317939 832.853333c12.970667 25.770667 38.741333 42.325333 66.389334 42.325334S567.003273 858.624 578.096606 832.853333l117.930667-239.616 263.68-46.08c27.648-3.754667 51.541333-23.893333 59.050666-51.541333 9.216-27.648 1.877333-57.173333-18.432-77.482667L810.203273 239.10400000000004l47.957333-258.048c5.461333-29.525333-7.338667-57.173333-29.525333-73.728-10.922667-9.216-25.770667-14.677333-42.325334-14.677333z"  horiz-adv-x="1024" />

    
    <glyph glyph-name="dongtai" unicode="&#59271;" d="M465.454545 337.454545V570.181818a46.545455 46.545455 0 0 1-93.090909 0v-279.272727a46.545455 46.545455 0 0 1 46.545455-46.545455h279.272727a46.545455 46.545455 0 0 1 0 93.090909H465.454545z m46.545455-465.454545a512 512 0 1 0 0 1024 512 512 0 0 0 0-1024z"  horiz-adv-x="1024" />

    
    <glyph glyph-name="shiwu" unicode="&#58944;" d="M827.78642963 655.36758518C763.46405925 767.74968889 642.34382222 839.11111111 512 839.11111111c-130.58654815 0-251.46405925-71.36142222-315.78642963-183.74352593-78.15774815-9.95176297-138.83922963-76.94411852-138.83922962-157.77185185 0-65.05054815 38.59342222-120.14933333 96.84764443-144.90737778L248.39964445-71.11111111000002h527.68616296L870.02074075 351.96017778c57.52604445 24.02986667 96.84764445 79.85682963 96.84764443 145.39282963 0 81.07045925-60.92420741 148.06281482-139.08195555 158.01457777zM703.0253037 19.91111110999998H320.9746963l-70.63324445 318.45641481h523.3170963L703.0253037 19.91111110999998zM420.97777778 65.30085925000003c25.00077037 0 45.38974815 20.38897778 45.38974814 45.38974816V247.10257778000005c0 25.2434963-20.38897778 45.38974815-45.38974814 45.38974814-25.00077037 0-45.38974815-20.38897778-45.38974815-45.38974814v-136.41197037c0-25.00077037 20.38897778-45.38974815 45.38974815-45.38974816z m182.04444444 0c25.00077037 0 45.38974815 20.38897778 45.38974815 45.38974816V247.10257778000005c0 25.2434963-20.38897778 45.38974815-45.38974815 45.38974814-25.00077037 0-45.38974815-20.38897778-45.38974814-45.38974814v-136.41197037c-0.24272592-25.00077037 20.14625185-45.38974815 45.38974814-45.38974816z"  horiz-adv-x="1024" />

    
    <glyph glyph-name="xiaojie" unicode="&#58972;" d="M791.04 847.872h-547.84c-52.224 0-94.72-46.08-94.72-101.888v-723.456c0-56.32 42.496-101.888 94.72-101.888h548.352c52.224 0 94.72 46.08 94.72 101.888V745.984c-0.512 55.808-43.008 101.888-95.232 101.888zM689.152 778.24v-258.048l-20.992 21.504c-11.776 12.288-30.72 12.288-43.008 0.512l-23.04-23.04V778.24h87.04z m133.632-756.224c0-18.944-14.336-34.304-31.744-34.304h-547.84c-17.408 0-31.744 15.36-31.744 34.304V745.984c0 18.944 14.336 34.304 31.744 34.304h296.448v-338.944c0-13.312 7.168-25.6 18.944-31.232 11.264-5.632 24.576-3.072 33.792 6.144l54.272 54.272 52.736-53.76c6.144-6.144 13.824-9.216 21.504-9.216 4.096 0 8.704 1.024 12.288 2.56 11.776 5.632 18.944 17.408 18.944 31.232V779.776h38.912c17.408 0 31.744-15.36 31.744-34.304v-723.456zM534.528 329.216H327.168c-17.408 0-31.744-15.36-31.744-34.304s14.336-34.304 31.744-34.304h207.36c17.408 0 31.744 15.36 31.744 34.304s-14.336 34.304-31.744 34.304zM450.56 154.624H327.168c-17.408 0-31.744-15.36-31.744-34.304s14.336-34.304 31.744-34.304H450.56c17.408 0 31.744 15.36 31.744 34.304-0.512 18.944-14.336 34.304-31.744 34.304z"  horiz-adv-x="1024" />

    
    <glyph glyph-name="refresh" unicode="&#58883;" d="M888.23000001 503.917L718.385 503.91699999c-21.66789999 0-39.1942 17.5561-39.1942 39.19610001 0 21.6382 17.5273 39.1942 39.1942 39.19419999l68.1819 1e-8c-61.5039 86.9065-162.641 143.715-277.223 143.715-187.607 0-339.692-152.086-339.692-339.69 0-187.606 152.086-339.691 339.692-339.691 187.606 0 339.691 152.086 339.691 339.691 0 21.6382 17.5264 39.1942 39.19329999 39.1942 21.63999999 0 39.1971-17.5561 39.19710001-39.1942 0-230.899-187.2-418.082-418.082-418.082-230.88499999 0-418.08299999 187.182-418.083 418.082 0 230.898 187.198 418.081 418.083 418.08100001 140.127 0 263.895-69.0866 339.691-174.93500001l0 70.4143c0 21.63999999 17.5264 39.1952 39.1933 39.1952 21.63999999 0 39.1971-17.5552 39.1971-39.1952l0-156.78C927.427 521.473 909.868 503.917 888.23000001 503.917Z"  horiz-adv-x="1024" />

    
    <glyph glyph-name="jiantou" unicode="&#58882;" d="M796.444444 384a72.476444 72.476444 0 0 1-20.48 50.688L347.022222 875.008a68.608 68.608 0 0 1-98.816 0 73.045333 73.045333 0 0 1 0-101.432889L627.71199999 384 248.035556-5.518222000000037a73.045333 73.045333 0 0 1 0-101.376 68.664889 68.664889 0 0 1 98.816 0l429.169777 440.263111A72.533333 72.533333 0 0 1 796.444444 384z m0 0"  horiz-adv-x="1024" />

    
    <glyph glyph-name="wd-copy-copy" unicode="&#58881;" d="M961.72259555-133.29749332999995H59.94723555c-18.64135111 0-37.28270222 9.32067555-48.93354666 23.30168888-11.65084445 16.31118222-16.31118222 34.95253333-11.65084444 53.59388445 46.60337778 237.67722667 240.00739555 414.77006222 473.02428444 433.41141333 78.06065778 0 162.52928-9.90321778 246.99790222-44.27320888 24.46677333-9.90321778 32.62236445-16.31118222 46.60337778-23.3016889 135.14979555-76.89557333 228.35655111-209.7152 258.64874666-365.83651555 4.66033778-18.64135111 0-37.28270222-13.98101333-53.59388445-11.65084445-13.98101333-30.29219555-23.30168889-48.93354667-23.30168888zM61.11232-95.43224888999998c-7.57304889 0-14.56355555 2.91271111-18.64135111 8.15559111-0.58254222 0.58254222-0.58254222 1.16508445-1.16508444 1.74762667-5.82542222 5.82542222-6.40796445 15.72864-5.24288 21.55406222 43.10812445 221.36604445 224.27875555 387.39057778 440.98446222 403.11921778h17.47626666c104.27505778 0 204.47232-32.62236445 253.40586667-63.49710222C876.08888889 198.75157333000004 961.72259555 78.16533332999995 988.51953778-63.974968890000014c1.16508445-8.15559111-0.58254222-15.72864-6.40796445-23.30168889-4.07779555-5.24288-11.06830222-8.15559111-18.64135111-8.15559111H61.11232zM494.52373333 325.16323554999997c101.36234667 0 198.64689778-31.45728 245.83281778-61.16693333h0.58254222c124.66403555-73.98286222 207.38503111-191.07384889 233.01688889-329.71889777 0.58254222-2.91271111 0.58254222-6.99050667-4.07779555-12.23338667-0.58254222-1.16508445-3.49525333-2.33016889-6.99050667-2.33016889H61.11232c-3.49525333 0-6.40796445 1.16508445-6.99050667 2.33016889-0.58254222 1.16508445-1.74762667 2.33016889-2.91271111 2.91271111-1.16508445 1.16508445-2.33016889 4.66033778-1.16508444 8.73813333 41.94304 214.95808 217.28824889 375.73973333 427.58599111 391.46837333 5.24288-0.58254222 11.06830222 0 16.89372444 0m0 29.12711112c-5.82542222 0-12.23338667 0-18.05880888-0.58254222C252.76871111 337.39662222000004 66.3552 167.29429332999996 22.08199111-61.06225777999998c-2.33016889-11.65084445 0-25.63185778 9.32067556-34.95253333 6.99050667-9.32067555 18.64135111-13.98101333 30.29219555-13.98101334H963.47022222c11.65084445 0 23.30168889 4.66033778 30.29219556 13.98101334 6.99050667 9.32067555 11.65084445 20.97152 9.32067555 34.95253333-27.96202667 149.13080889-116.50844445 271.46467555-246.99790222 349.52533333-49.51608889 30.87473778-150.87843555 65.82727111-261.56145778 65.82727112zM512 356.03797333c-146.80064 0-267.96942222 121.16878222-267.96942222 267.96942222S365.19936 891.97681778 512 891.97681778s267.96942222-121.16878222 267.96942222-267.96942223S658.80064 356.03797333 512 356.03797333zM512 393.90321778c-126.99420445 0-230.10417778 103.10997333-230.10417778 230.10417777S385.00579555 854.11157333 512 854.11157333s230.10417778-103.10997333 230.10417778-230.10417778-103.10997333-230.10417778-230.10417778-230.10417777zM512 839.54801778c118.83861333 0 215.54062222-96.70200889 215.54062222-215.54062223S630.83861333 408.46677333 512 408.46677333s-215.54062222 96.70200889-215.54062222 215.54062222 96.70200889 215.54062222 215.54062222 215.54062223m0 29.12711111c-135.14979555 0-244.66773333-109.51793778-244.66773333-244.66773334s109.51793778-244.66773333 244.66773333-244.66773333 244.66773333 109.51793778 244.66773333 244.66773333S647.14979555 868.67512889 512 868.67512889z"  horiz-adv-x="1024" />

    
    <glyph glyph-name="jiantouarrowhead7" unicode="&#59068;" d="M294.13376 384c0 13.70112 5.23264 27.40224 15.6672 37.84704l328.704 328.69376c20.91008 20.91008 54.80448 20.91008 75.70432 0 20.89984-20.89984 20.89984-54.79424 0-75.70432L423.36256 384l290.83648-290.83648c20.89984-20.89984 20.89984-54.80448 0-75.70432-20.89984-20.91008-54.79424-20.91008-75.70432 0l-328.704 328.69376C299.35616 356.59776 294.13376 370.29888 294.13376 384z"  horiz-adv-x="1024" />

    
    <glyph glyph-name="wode2" unicode="&#58927;" d="M944.756-56.134c0 0-3.743-32.64-53.282-26.997-15.766 1.792-32.56 26.997-32.56 26.997C830.177 127.835 686.677 267.83 513.515 267.83c-173.16 0-316.661-139.995-345.398-323.964 0 0-6.618-24.836-32.56-26.997-60.585-5.063-53.282 26.997-53.282 26.997 5.563 168.889 114.183 312.547 267.043 373.555-79.989 53.229-132.771 144.106-132.771 247.375 0 164.012 132.955 296.967 296.967 296.967s296.967-132.955 296.967-296.967c0-103.269-52.78-194.146-132.77-247.375C830.572 256.413 939.192 112.755 944.756-56.134zM729.492 564.797c0 119.272-96.704 215.976-215.977 215.976-119.271 0-215.976-96.704-215.976-215.976s96.704-215.975 215.976-215.975C632.788 348.822 729.492 445.525 729.492 564.797z"  horiz-adv-x="1024" />

    
    <glyph glyph-name="shouye" unicode="&#59045;" d="M996.7104 454.02112 609.4336 857.1904C585.36448 882.22208 553.20064 896 518.72256 896S452.08064 882.22208 428.01664 857.1904L40.73984 454.02112c-39.9616-41.61536-34.816-77.58336-28.2112-92.61056 4.70528-10.65984 20.60288-39.9616 66.39616-39.9616l56.76544 0 0-310.15936c0-70.41536 50.56-136.71936 122.41408-136.71936l65.14688 0L422.9632-125.42976l0 72.87808 0 255.36c0 35.19488-5.32992 54.79936 30.61248 54.79936l65.14688 0 65.14688 0c35.93728 0 30.61248-19.60448 30.61248-54.79936l0-255.36 0-72.87808 99.71712 0 65.152 0c71.84896 0 122.40384 66.304 122.40384 136.71936l0 310.15936 56.77056 0c45.77792 0 61.68576 29.30176 66.39616 39.9616C1031.53664 376.43264 1036.672 412.40576 996.7104 454.02112z"  horiz-adv-x="1030" />

    
    <glyph glyph-name="search" unicode="&#58920;" d="M660.272 181.548c-33.953-27.451-71.517-48.762-112.694-63.932-41.177-15.17-84.882-22.756-131.838-22.756-109.082 2.528-199.743 40.093-272.344 112.694-72.601 72.601-110.166 163.262-112.694 272.344 2.89 109.082 40.454 199.743 113.055 272.344 72.24 72.24 163.262 109.805 271.983 112.333 109.082-2.528 199.743-40.093 272.344-112.694 72.601-72.601 110.166-163.262 112.694-272.344 0-46.956-7.585-90.661-22.756-131.838-15.17-41.177-36.481-78.38-63.932-111.611l279.929-279.929-54.902-54.902-278.846 280.291zM415.74 171.795c87.049 1.806 160.011 31.786 217.803 89.939 58.153 58.153 88.133 130.754 89.939 217.803-1.806 87.049-31.786 160.011-89.939 217.803-58.153 58.153-130.754 88.133-217.803 89.939-87.049-1.445-159.65-31.424-217.803-89.577-58.153-58.153-88.133-130.754-89.939-217.803 2.528-87.049 32.869-160.011 90.3-217.803 57.792-58.153 130.393-88.133 217.442-90.3z"  horiz-adv-x="1024" />

    
    <glyph glyph-name="paixingbang" unicode="&#59077;" d="M315.597609 1.780289c-62.13867 0-124.393261 0-188.573147 0 0 126.355131 0 252.968887 0 382.249435 63.490354 0 125.046818 0 188.573147 0C315.597609 256.581933 315.597609 130.025938 315.597609 1.780289zM603.685685 2.232982c-60.901509 0-122.853905 0-186.300688 0 0 254.759673 0 508.683912 0 766.051617 62.799822 0 123.42252 0 186.300688 0C603.685685 513.576891 603.685685 258.975311 603.685685 2.232982zM895.189246 1.507474c-62.46245 0-124.032506 0-187.932981 0 0 174.161518 0 348.696784 0 525.524295 61.721953 0 123.860622 0 187.932981 0C895.189246 352.129752 895.189246 177.537725 895.189246 1.507474z"  horiz-adv-x="1024" />

    
    <glyph glyph-name="shuaxin" unicode="&#58923;" d="M932.004 268.752h-279.32c-15.42 0-27.932-12.552-27.932-27.896 0-15.342 14.608-26.221 26.535-37.938l77.623-77.551c-58.294-49.376-133.487-79.503-215.942-79.503-166.028 0-303.509 120.79-330.157 278.96h-112.9c27.568-220.1 215.188-390.545 443.057-390.545 113.348 0 216.585 42.403 295.296 111.863l80.054-80.061c15.027-15.064 28.268-32.081 43.686-32.081s27.932 12.553 27.932 27.896v278.96c0 3.348 0 27.896-27.932 27.896zM93.932 492.48h279.32c15.419 0 27.932 12.553 27.932 27.896s-14.609 26.223-26.535 37.939l-77.623 77.55c58.293 49.377 133.487 79.505 215.942 79.505 166.028 0 303.51-120.79 330.156-278.96h112.9c-27.567 220.1-215.187 390.543-443.056 390.543-113.32 0-216.585-42.401-295.297-111.863l-80.026 80.063c-15.055 15.063-28.294 32.080-43.713 32.080-15.418-0.002-27.932-12.556-27.932-27.899v-278.96c0-3.348 0-27.896 27.932-27.896z"  horiz-adv-x="1024" />

    
    <glyph glyph-name="error" unicode="&#59382;" d="M220.8 83.20000000000005l22.4-22.4 272 272 272-272 48 44.8-275.2 272 275.2 272-48 48-272-275.2-272 275.2-22.4-25.6-22.4-22.4 272-272-272-272z"  horiz-adv-x="1024" />

    
    <glyph glyph-name="zaocan" unicode="&#59570;" d="M64-21.333333h896v42.666666H64zM128.085333 192h40.896l2.197334 40.341333C181.056 412.672 330.538667 554.666667 512 554.666667c181.418667 0 330.922667-141.994667 340.8-322.325334L855.04 192h40.896c11.776 0 21.418667-9.6 21.418667-21.333333s-9.664-21.333333-21.418667-21.333334H128.085333C116.266667 149.333333 106.666667 158.933333 106.666667 170.666667s9.621333 21.333333 21.418666 21.333333M512 725.333333a64 64 0 1 0 0-128 64 64 0 0 0 0 128M128.085333 106.666667h767.829334A64.106667 64.106667 0 0 1 960 170.666667c0 35.264-28.693333 64-64.085333 64-10.026667 175.722667-137.92 319.829333-305.749334 354.56A105.984 105.984 0 0 1 618.666667 661.333333a106.666667 106.666667 0 0 1-213.333334 0 106.026667 106.026667 0 0 1 28.757334-72.426666C279.765333 556.138667 161.493333 428.544 132.736 273.856A388.16 388.16 0 0 1 128.576 234.666667C92.8 234.666667 64 206.016 64 170.666667c0-35.264 28.672-64 64.085333-64M323.285333 374.186667A234.24 234.24 0 0 0 512 469.333333a21.333333 21.333333 0 1 1 0 42.666667 276.949333 276.949333 0 0 1-223.018667-112.426667 21.333333 21.333333 0 0 1 34.304-25.386666"  horiz-adv-x="1024" />

    
    <glyph glyph-name="shouye1" unicode="&#58889;" d="M1000.4 442.6l-430 430C555.8 887.2 536.2 895.4 515.4 895.4c-20.8 0-40.2-8-55-22.8l-430-430c-30.2-30.4-30.2-79.6 0-110l10.8-10.6L146 289.4v-309c0-59.8 48.6-108.4 108.4-108.4H460V75.4c0 7.8 6.4 14.2 14.2 14.2h91c7.8 0 14.2-6.4 14.2-14.2V-128h191.2c59.8 0 108.4 48.6 108.4 108.4V289l110.4 32.8 10.8 10.8c14.8 14.6 22.8 34.2 22.8 55 0.2 20.8-7.8 40.2-22.6 55zM770.8-64.6h-127.8v139.8c0 42.8-34.8 77.8-77.8 77.8h-91c-42.8 0-77.8-34.8-77.8-77.8v-139.8h-142.2c-24.8 0-45 20.2-45 44.8V336l-134.2 41.8c-5.2 5.6-5 14.4 0.4 19.8l430 430c2.6 2.6 6.2 4.2 10 4.2s7.4-1.4 10-4.2l430-430c2.6-2.6 4.2-6.2 4.2-10 0-3.6-1.2-7-3.8-9.6l-140.4-41.6v-356c0.2-24.8-20-45-44.6-45z"  horiz-adv-x="1024" />

    
    <glyph glyph-name="tubiaozhizuomoban-" unicode="&#58895;" d="M466.8416 707.1744zM585.4208 714.4448c1.1264-1.4336 2.4576-2.7648 3.4816-4.3008-1.1264 1.536-2.3552 2.8672-3.4816 4.3008zM566.272 731.136a71.68 71.68 0 0 0 15.872-12.8 71.68 71.68 0 0 1-15.872 12.8zM443.6992 661.1968l-38.5024-78.5408a73.3184 73.3184 0 0 0-3.7888-6.7584 70.7584 70.7584 0 0 1 3.7888 6.7584zM752.7424 719.36a74.1376 74.1376 0 0 0 19.0464-5.0176 74.1376 74.1376 0 0 1-19.0464 5.0176zM837.7344 525.0048l-129.4336 18.432a73.5232 73.5232 0 0 0-55.5008 40.0384l-55.5008 111.5136a125.44 125.44 0 0 0-206.848-133.12 73.4208 73.4208 0 0 0-40.448-20.48l-129.3312-18.432a73.5232 73.5232 0 0 1-40.3456-125.44l93.9008-90.9312a73.5232 73.5232 0 0 0 21.2992-65.024l-21.6064-129.024A73.5232 73.5232 0 0 1 380.8256 35.84l115.6096 61.44a73.5232 73.5232 0 0 0 68.4032 0l115.9168-60.5184a73.5232 73.5232 0 0 1 106.3936 77.824l-22.528 128.8192a73.5232 73.5232 0 0 0 20.48 65.1264l93.3888 91.5456a73.5232 73.5232 0 0 1-40.7552 124.928zM529.408 223.1296A78.9504 78.9504 0 0 0 450.56 302.08a18.3296 18.3296 0 1 0 36.7616 0 42.0864 42.0864 0 0 1 84.1728 0 18.3296 18.3296 0 1 0 36.7616 0 78.9504 78.9504 0 0 0-78.848-78.9504zM397.1072 569.856l2.6624 3.4816zM589.824 320.4096A18.3296 18.3296 0 0 1 571.4944 302.08a42.0864 42.0864 0 0 0-84.1728 0A18.3296 18.3296 0 1 1 450.56 302.08a78.848 78.848 0 0 1 157.696 0 18.3296 18.3296 0 0 1-18.432 18.3296zM597.2992 694.9888l-2.7648 5.5296a76.9024 76.9024 0 0 1-5.632 9.6256 76.8 76.8 0 0 0 5.632-9.6256zM466.8416 707.1744a76.1856 76.1856 0 0 1-4.096-7.0656l-19.0464-38.912 19.0464 38.912a76.288 76.288 0 0 0 4.096 7.0656zM399.36 573.3376l1.6384 2.56zM518.656 740.5568A72.192 72.192 0 0 1 470.016 711.68a72.192 72.192 0 0 0 48.64 28.8768zM582.144 718.336c1.1264-1.2288 2.1504-2.6624 3.1744-3.9936-1.024 1.4336-1.6384 2.8672-3.1744 3.9936zM390.4512 562.3808a73.1136 73.1136 0 0 1 6.656 7.4752 75.6736 75.6736 0 0 0-6.656-7.4752zM605.696 650.24a125.0304 125.0304 0 0 1-8.3968 44.9536l-2.7648 5.5296a76.8 76.8 0 0 1-5.632 9.6256c-1.1264 1.536-2.3552 2.8672-3.4816 4.3008s-2.048 2.7648-3.1744 3.9936a71.68 71.68 0 0 1-15.9744 12.4928 72.2944 72.2944 0 0 1-8.9088 4.4032 74.1376 74.1376 0 0 1-19.0464 5.0176 75.4688 75.4688 0 0 1-19.6608 0A72.192 72.192 0 0 1 470.016 711.68c-1.1264-1.536-2.1504-3.072-3.1744-4.7104a76.288 76.288 0 0 1-4.096-7.0656l-19.0464-38.912-38.5024-78.336a70.7584 70.7584 0 0 0-3.7888-6.7584l-1.6384-2.56-2.6624-3.4816a73.1136 73.1136 0 0 0-6.656-7.4752 125.44 125.44 0 0 1 215.04 87.6544zM605.696 650.24a125.0304 125.0304 0 0 1-8.3968 44.9536l-2.7648 5.5296a76.8 76.8 0 0 1-5.632 9.6256c-1.1264 1.536-2.3552 2.8672-3.4816 4.3008s-2.048 2.7648-3.1744 3.9936a71.68 71.68 0 0 1-15.9744 12.4928 72.2944 72.2944 0 0 1-8.9088 4.4032 74.1376 74.1376 0 0 1-19.0464 5.0176 75.4688 75.4688 0 0 1-19.6608 0A72.192 72.192 0 0 1 470.016 711.68c-1.1264-1.536-2.1504-3.072-3.1744-4.7104a76.288 76.288 0 0 1-4.096-7.0656l-19.0464-38.912-38.5024-78.336a70.7584 70.7584 0 0 0-3.7888-6.7584l-1.6384-2.56-2.6624-3.4816a73.1136 73.1136 0 0 0-6.656-7.4752 125.44 125.44 0 0 1 215.04 87.6544z"  horiz-adv-x="1024" />

    
    <glyph glyph-name="dingqixiaojie" unicode="&#59105;" d="M512.1-62.3H98c-16.6 0-30 13.4-30 30V743.3c0 16.6 13.4 30 30 30h82.8c16.6 0 30-13.4 30-30s-13.4-30-30-30H128v-715.6h384.1c16.6 0 30-13.4 30-30s-13.4-30-30-30zM832.2 326.6c-16.6 0-30 13.4-30 30V713.3h-54.8c-16.6 0-30 13.4-30 30s13.4 30 30 30h84.8c16.6 0 30-13.4 30-30v-386.7c0-16.6-13.5-30-30-30zM520.8 713.3H405.3c-16.6 0-30 13.4-30 30s13.4 30 30 30h115.5c16.6 0 30-13.4 30-30s-13.5-30-30-30zM735.8-30.4c-7.7 0-15.4 2.9-21.2 8.8-11.7 11.7-11.7 30.7 0 42.4l172 172-41.4 41.4-172-172c-11.7-11.7-30.7-11.7-42.4 0s-11.7 30.7 0 42.4L824 297.8c11.7 11.7 30.7 11.7 42.4 0l83.9-83.9c11.7-11.7 11.7-30.7 0-42.4L757-21.6c-5.9-5.9-13.6-8.8-21.2-8.8zM621-61.8c-7.9 0-15.5 3.1-21.2 8.8-7.6 7.6-10.5 18.6-7.8 29l30.9 115.2c4.3 16 20.7 25.5 36.7 21.2 16-4.3 25.5-20.7 21.2-36.7l-17.4-65 65 17.4c16 4.3 32.5-5.2 36.7-21.2 4.3-16-5.2-32.5-21.2-36.7l-115.2-30.9c-2.5-0.8-5.1-1.1-7.7-1.1zM290.2 638.8c-16.6 0-30 13.4-30 30V802.4c0 16.6 13.4 30 30 30s30-13.4 30-30v-133.6c0-16.6-13.4-30-30-30zM638.5 639.4c-16.6 0-30 13.4-30 30V803c0 16.6 13.4 30 30 30s30-13.4 30-30v-133.6c0-16.6-13.4-30-30-30zM704.1 480.2H252.9c-17.7 0-32 14.3-32 32s14.3 32 32 32h451.2c17.7 0 32-14.3 32-32s-14.3-32-32-32zM704.1 288H252.9c-17.7 0-32 14.3-32 32s14.3 32 32 32h451.2c17.7 0 32-14.3 32-32s-14.3-32-32-32zM445.5 95.1h-191c-17.7 0-32 14.3-32 32s14.3 32 32 32h191c17.7 0 32-14.3 32-32s-14.4-32-32-32z"  horiz-adv-x="1024" />

    
    <glyph glyph-name="rizhi" unicode="&#58924;" d="M902.8 4l-95.5 96.3c62.4 95.5 35.6 223.5-59.9 285.9s-223.5 35.6-285.9-59.9-35.6-223.5 59.9-285.9c33.7-22 73.1-33.7 113.4-33.6 40.6 0.1 80.3 12.2 114 34.8l95.6-96.2c11.9-11.9 31.3-11.9 43.2 0l15.3 15.4c11.9 12.1 11.9 31.4 0 43.5l-0.1-0.3zM746.4 161.4C732 131 706 107.7 674.2 96.7c-12.7-5-26.2-7.4-39.8-6.9-69.6-1-126.7 54.6-127.7 124.2S561.4 340.7 631 341.7 757.7 287 758.6 217.5c0.3-19.5-4-38.7-12.4-56.2l0.2 0.1zM364.6 176H263.4c-17.5 0.7-31.2 15.5-30.5 33 0.7 16.6 13.9 29.8 30.5 30.5H363c2.5 29.2 9.8 57.8 21.4 84.6H263.5c-17.5 0.7-31.2 15.5-30.5 33 0.7 16.6 13.9 29.8 30.5 30.5h159.3c31.1 38.5 72.1 67.8 118.6 84.6H263.5c-17.5 0-31.8 14.2-31.7 31.8 0 17.5 14.2 31.7 31.7 31.7H749c17.5 0 31.8-14.2 31.7-31.8 0-17.5-14.2-31.7-31.7-31.7h-23.8c85.9-31.3 150.5-103.6 171.9-192.6V735.9c0.1 52.9-42.7 96-95.6 96.3H210.8c-52.9-0.4-95.5-43.3-95.5-96.2v-687c0-52.9 42.7-95.9 95.6-96.2h346.4C455-16.9 379.7 70.3 364.6 176zM263.4 683.8H749c17.5-0.7 31.2-15.5 30.5-33-0.7-16.6-13.9-29.8-30.5-30.5H263.4c-17.5 0.7-31.2 15.5-30.5 33 0.7 16.6 14 29.8 30.5 30.5z"  horiz-adv-x="1024" />

    
    <glyph glyph-name="shiwu-" unicode="&#60372;" d="M506.4 49.6c-184 0-334.4 149.6-334.4 334.4 0 184 149.6 334.4 334.4 334.4S840.8 568 840.8 384c0-184-150.4-334.4-334.4-334.4z m0 636.8c-166.4 0-302.4-135.2-302.4-302.4 0-166.4 135.2-302.4 302.4-302.4 166.4 0 302.4 135.2 302.4 302.4 0 166.4-136 302.4-302.4 302.4zM506.4 191.2C400 191.2 313.6 277.6 313.6 384S400 576.8 506.4 576.8 699.2 490.4 699.2 384 612.8 191.2 506.4 191.2z m0 369.6c-97.6 0-176.8-79.2-176.8-176.8 0-97.6 79.2-176.8 176.8-176.8 97.6 0 176.8 79.2 176.8 176.8 0 97.6-79.2 176.8-176.8 176.8zM920 78.4c-13.6 0-27.2 5.6-36.8 16-9.6 10.4-14.4 24-13.6 37.6l13.6 324.8c0 8.8 7.2 15.2 16 15.2h42.4c8.8 0 16-6.4 16-15.2l13.6-324.8c0.8-13.6-4-27.2-13.6-37.6-10.4-10.4-24-16-37.6-16z m-6.4 361.6l-12.8-309.6c0-5.6 1.6-10.4 4.8-14.4 7.2-7.2 20-7.2 27.2 0 3.2 4 5.6 8.8 4.8 13.6L925.6 440h-12zM920 440c-55.2 0-100 44.8-100 100V673.6c0 8.8 7.2 16 16 16s16-7.2 16-16v-133.6c0-37.6 30.4-68 68-68s68 30.4 68 68V673.6c0 8.8 7.2 16 16 16s16-7.2 16-16v-133.6c0-55.2-44.8-100-100-100zM920 440c-8.8 0-16 7.2-16 16V673.6c0 8.8 7.2 16 16 16s16-7.2 16-16V456c0-8.8-7.2-16-16-16zM116 252h-96c-8.8 0-16 7.2-16 16v7.2C3.2 491.2 26.4 624 72 670.4c12.8 12.8 28 19.2 44 19.2 8.8 0 16-7.2 16-16v-405.6c0-8.8-7.2-16-16-16z m-80 32h64v368c-1.6-1.6-3.2-3.2-5.6-4.8-21.6-21.6-58.4-98.4-58.4-363.2zM86.4 78.4c-13.6 0-27.2 5.6-36.8 16-9.6 10.4-14.4 24-13.6 37.6l5.6 136.8c0 8.8 7.2 15.2 16 15.2h58.4c8.8 0 16-6.4 16-15.2l5.6-136.8c0.8-13.6-4-27.2-13.6-37.6-9.6-10.4-23.2-16-37.6-16zM72.8 252l-4.8-121.6c0-5.6 1.6-10.4 4.8-14.4 7.2-7.2 20-7.2 27.2 0 3.2 4 5.6 8.8 4.8 13.6l-4.8 121.6H72.8z"  horiz-adv-x="1024" />

    
    <glyph glyph-name="shiwu-1" unicode="&#60388;" d="M728.8 481.6H41.6c-8 0-15.2 6.4-16 14.4-2.4 18.4 0.8 36.8 8 53.6 1.6 4 4 8 5.6 12 2.4 4 4.8 8.8 5.6 12.8 2.4 6.4 4 14.4 4.8 22.4 0.8 6.4 1.6 12.8 4 19.2 4.8 20.8 16.8 40 32 54.4 4 4 11.2 9.6 20 12.8 4 0.8 7.2 1.6 9.6 2.4 1.6 0 3.2 0.8 4.8 0.8 10.4 3.2 14.4 21.6 16.8 35.2 6.4 35.2 20.8 55.2 43.2 59.2 4.8 0.8 9.6 0.8 13.6 0.8h4.8c20 0.8 35.2 22.4 43.2 35.2 3.2 5.6 6.4 11.2 8.8 16.8 10.4 14.4 20 32 36 46.4 2.4 2.4 11.2 9.6 23.2 8.8 14.4-1.6 20-13.6 22.4-20.8 0-0.8 0.8-1.6 1.6-2.4h1.6l45.6 5.6c3.2 0.8 10.4 1.6 17.6-2.4 10.4-6.4 11.2-17.6 12-23.2v-3.2c0.8-0.8 5.6-3.2 16.8-3.2l42.4-1.6h6.4c23.2 10.4 50.4 4 65.6-15.2l48-61.6c6.4-8 14.4-18.4 16-32.8 0-2.4 0-4.8 0.8-8v-4.8c0.8-0.8 3.2-2.4 5.6-3.2 6.4-4 14.4-8.8 18.4-19.2 1.6-4.8 1.6-8.8 2.4-12v-1.6l4.8-2.4c7.2-3.2 18.4-8.8 21.6-21.6 0.8-4 0.8-8 0.8-10.4v-0.8c1.6-1.6 4.8-3.2 7.2-4.8 6.4-4 14.4-8.8 19.2-17.6 4-8 4.8-15.2 5.6-21.6 0-3.2 0.8-5.6 0.8-7.2 1.6-4.8 8.8-9.6 16.8-14.4 12-7.2 26.4-15.2 32-32.8 2.4-8 1.6-15.2 1.6-21.6v-4.8c0-5.6 0.8-11.2 2.4-16.8 1.6-4.8 0.8-10.4-2.4-14.4-4-4-8.8-6.4-14.4-6.4z m-671.2 32h652v7.2 6.4c0 4 0.8 8 0 10.4-1.6 4.8-8.8 9.6-16.8 14.4-12 6.4-26.4 15.2-31.2 32-1.6 5.6-2.4 10.4-2.4 15.2 0 3.2-0.8 6.4-0.8 8-0.8 1.6-4.8 4-8 6.4-8 4.8-20 12.8-21.6 28v7.2c-0.8 0.8-2.4 1.6-4 1.6-6.4 3.2-16 7.2-20.8 17.6-4 2.4-4 8-4 11.2v2.4c-0.8 0.8-3.2 2.4-4.8 3.2-5.6 3.2-12.8 8-17.6 16.8-3.2 6.4-3.2 13.6-3.2 18.4v4c-0.8 4.8-5.6 11.2-9.6 16.8l-48 61.6c-6.4 8-17.6 10.4-27.2 5.6h-0.8c-7.2-3.2-14.4-2.4-20-2.4l-42.4 1.6c-35.2 1.6-44.8 18.4-46.4 28.8 0 0.8 0 1.6-0.8 3.2l-40-4.8c-4.8-0.8-12.8-1.6-21.6 3.2-7.2 4-11.2 10.4-13.6 16-9.6-9.6-16-22.4-23.2-36-3.2-5.6-6.4-12-9.6-17.6-18.4-32-43.2-49.6-69.6-50.4h-14.4c-10.4-1.6-15.2-21.6-17.6-32.8-2.4-15.2-9.6-52-40-60.8-3.2-0.8-6.4-1.6-8.8-1.6-1.6 0-4-0.8-4.8-0.8-2.4-0.8-5.6-3.2-8-5.6-11.2-10.4-19.2-24-22.4-38.4-1.6-4.8-2.4-10.4-3.2-16-1.6-9.6-3.2-19.2-6.4-28.8-2.4-5.6-4.8-11.2-7.2-16L64 539.2c-4-10.4-5.6-18.4-6.4-25.6zM195.2-120.8c-6.4 0-12.8 4-15.2 10.4-3.2 8 0.8 17.6 8.8 20.8l778.4 304c8 3.2 17.6-0.8 20.8-8.8 3.2-8-0.8-17.6-8.8-20.8l-778.4-304c-1.6-0.8-3.2-1.6-5.6-1.6zM178.4-71.2c-8 0-14.4 5.6-16 13.6-1.6 8.8 4.8 16.8 13.6 18.4l825.6 128.8c8.8 1.6 16.8-4.8 18.4-13.6 1.6-8.8-4.8-16.8-13.6-18.4L180.8-71.2h-2.4zM550.4 92.8H234.4c-8.8 0-16 7.2-16 16v41.6C88 216 4 351.2 4 497.6c0 8.8 7.2 16 16 16h744.8c8.8 0 16-7.2 16-16 0-146.4-84-281.6-214.4-347.2v-41.6c0-8.8-7.2-16-16-16z m-300 32h284.8V160c0 6.4 3.2 12 8.8 14.4 120 56 198.4 175.2 204.8 306.4h-712c5.6-131.2 84.8-250.4 204.8-306.4 5.6-2.4 8.8-8 8.8-14.4v-35.2zM523.2 210.4c-3.2 0-5.6 1.6-7.2 4.8-1.6 4 0 8.8 4 10.4 84.8 40 146.4 118.4 166.4 209.6 0.8 4 4.8 7.2 9.6 6.4 4-0.8 7.2-4.8 6.4-9.6C681.6 336 616 252.8 527.2 211.2c-1.6-0.8-2.4-0.8-4-0.8z"  horiz-adv-x="1024" />

    
    <glyph glyph-name="biaoqing" unicode="&#58885;" d="M512 628.363636l130.327273-176.872727 18.618182-23.272727 25.6 13.963636 111.70909 58.181818-20.945454-297.890909-6.981818-83.781818H251.345455l-6.981819 83.781818-18.618181 295.563637 111.70909-58.181819 25.6-13.963636 18.618182 23.272727 130.327273 179.2M512 686.545455l-158.254545-216.436364L186.181818 556.218182 211.781818 197.818182l6.981818-116.363637h584.145455l6.981818 116.363637L837.818182 556.218182l-167.563637-86.109091L512 686.545455z"  horiz-adv-x="1024" />

    
    <glyph glyph-name="biaoqing1" unicode="&#58917;" d="M653.963636 404.945455L521.309091 570.181818l-134.981818-165.236363-141.963637 65.163636 20.945455-276.945455 6.981818-88.436363H768l6.981818 88.436363 20.945455 276.945455zM670.254545 470.109091L512 686.545455l-158.254545-216.436364L186.181818 556.218182 211.781818 197.818182v-18.618182h2.327273l4.654545-97.745455h584.145455l6.981818 100.072728h2.327273V197.818182L837.818182 556.218182l-167.563637-86.109091z m-332.8-30.254546l25.6-13.963636 18.618182 23.272727 130.327273 176.872728 130.327273-176.872728 18.618182-23.272727 25.6 13.963636 111.70909 58.181819-18.618181-281.6h-535.272728l-18.618181 281.6 111.70909-58.181819z m435.2-323.490909H251.345455l-4.654546 65.163637h528.290909l-2.327273-65.163637z"  horiz-adv-x="1024" />

    
    <glyph glyph-name="tuijianfuwu" unicode="&#59137;" d="M914.432 77.610667l-114.858667-16.362667-72.533333-91.733333a43.242667 43.242667 0 0 0-59.093333 15.829333l-109.226667 189.162667a339.392 339.392 0 0 0-48.021333-3.776 343.872 343.872 0 0 0-49.941334 4.053333l-109.525333-189.696a42.666667 42.666667 0 0 0-58.282667-15.616l-71.466666 90.517333-113.28 16.149334a42.666667 42.666667 0 0 0-15.616 58.282666l121.109333 209.770667a341.333333 341.333333 0 1 0 595.413333 2.368l121.130667-209.792a43.264 43.264 0 0 0-15.808-59.157333zM158.72 120.832l94.805333-5.461333 52.992-79.872 89.6 155.285333a341.525333 341.525333 0 0 0-141.589333 96zM510.741333 789.333333a277.333333 277.333333 0 1 1 277.333334-277.333333 277.333333 277.333333 0 0 1-277.333334 277.333333zM768 288a341.333333 341.333333 0 0 0-143.488-97.6l88.917333-154.026667 53.76 81.066667 96.128 5.546667zM512 320a192 192 0 1 0 192 192 192 192 0 0 0-192-192z m-0.661333 320.661333a128 128 0 1 1 128-128 128 128 0 0 1-128 128z"  horiz-adv-x="1024" />

    
    <glyph glyph-name="tianchongxing-" unicode="&#58922;" d="M512 574.4m-262.6 0a262.6 262.6 0 1 1 525.2 0 262.6 262.6 0 1 1-525.2 0ZM924.3-7.6c0 0.1 0 0.1 0 0-0.1 2.1-0.3 4-0.6 5.9C901.2 205.9 725.5 367.4 512 367.4c-213.8 0-389.7-161.9-411.8-369.8-0.2-1.5-0.4-2.9-0.4-4.4 0-0.2-0.1-0.5-0.1-0.7h0.1v-1.2c0-22.6 18.3-40.9 40.9-40.9h742.8c22.6 0 40.9 18.3 40.9 40.9 0 0.4-0.1 0.8-0.1 1.1z"  horiz-adv-x="1024" />

    
    <glyph glyph-name="duibifenxi" unicode="&#58880;" d="M48.761905 749.714286h926.47619v-731.428572H48.761905V749.714286z m460.8-91.428572v-548.571428h373.028571V658.285714H509.561905zM438.857143 896h97.523809v-1024H438.857143z"  horiz-adv-x="1024" />

    
    <glyph glyph-name="zaocan1" unicode="&#59190;" d="M623.7 546.2c-140.5-52.8-242.8-187.2-247-345h494.1c-4.4 157.8-106.6 292.1-247.1 345zM101 109.2h825v-66H101zM926.6 160.5H100.7l0.9 33.9c1.5 54.3 13.5 106.9 35.7 156.4 21.5 47.8 51.5 90.6 89.3 127.4C264.4 515 308 543.8 356.3 564c50.1 20.9 103 31.5 157.3 31.5 54.3 0 107.2-10.6 157.3-31.5 48.3-20.2 92-49 129.7-85.8 37.8-36.8 67.8-79.6 89.3-127.4 22.2-49.5 34.3-102.1 35.7-156.4l1-33.9z m-756.4 66h687c-9.7 77.2-45.4 148.8-102.5 204.4-65.3 63.6-150.9 98.6-241 98.6s-175.7-35-241-98.6c-57.1-55.6-92.8-127.2-102.5-204.4zM483.7 694.4h66v-107h-66zM395.5 748.2H637v-66H395.5z"  horiz-adv-x="1024" />

    
    <glyph glyph-name="xinxi" unicode="&#59503;" d="M507.297959 33.959184c-52.244898 0-102.922449 9.404082-151.510204 27.689796l-116.506122-25.6c-24.032653-5.22449-46.497959 0-60.604082 14.628571-14.628571 14.628571-19.853061 36.571429-14.628571 60.604082l17.240816 77.844898c-43.363265 57.469388-66.35102 122.77551-66.35102 190.693877C114.938776 575.216327 291.004082 734.040816 507.297959 734.040816c107.62449 0 208.457143-36.04898 283.689796-101.877551C867.265306 565.289796 909.061224 475.95102 909.061224 379.820408c0-190.693878-180.244898-345.861224-401.763265-345.861224zM512 314.514286c-38.138776 0-69.485714 31.346939-69.485714 69.485714s31.346939 69.485714 69.485714 69.485714 69.485714-31.346939 69.485714-69.485714-31.346939-69.485714-69.485714-69.485714zM710.530612 314.514286c-38.138776 0-69.485714 31.346939-69.485714 69.485714s31.346939 69.485714 69.485714 69.485714 69.485714-31.346939 69.485715-69.485714-31.346939-69.485714-69.485715-69.485714zM313.469388 314.514286c-38.138776 0-69.485714 31.346939-69.485715 69.485714s31.346939 69.485714 69.485715 69.485714 69.485714-31.346939 69.485714-69.485714-31.346939-69.485714-69.485714-69.485714z"  horiz-adv-x="1024" />

    
    <glyph glyph-name="baogaogongdan" unicode="&#58955;" d="M803.64 725.6H692.57c0.53-3.08 0.74-6.26 0.74-9.44 0-31.51-25.67-57.18-57.18-57.18H406.34c-31.51 0-57.18 25.68-57.18 57.18 0 3.19 0.32 6.37 0.74 9.44H238.84c-26.21 0-47.42-21.11-47.42-47.1v-659.75c0.1-26.1 21.32-47.1 47.42-47h564.7c26.2 0 47.42 21.11 47.42 47.1V678.39c0.1 26.21-21.11 47.21-47.32 47.21zM332.72 419.65c0 12.84 10.29 23.23 23.13 23.23h142.26c12.84-0.21 23.12-10.72 23.12-23.55 0-13.05-10.08-23.55-23.12-23.55H355.85c-12.73 0-23.13 10.92-23.13 23.55v0.32z m259.6-118.08c13.05 0 23.55-10.5 23.55-23.55s-10.5-23.55-23.55-23.55H355.95c-12.73 0-23.12 10.93-23.12 23.55 0 12.84 10.29 23.34 23.12 23.55h236.37z m93.78-188.52H356.38c-13.05 0-23.55 10.93-23.55 23.55 0 13.05 10.82 23.55 23.55 23.55H686.2c13.05 0 23.55-10.92 23.55-23.55-0.1-12.94-10.92-23.55-23.65-23.55z m0 424.04H356.38c-13.05 0-23.55 10.92-23.55 23.55 0 13.05 10.82 23.55 23.55 23.55H686.2c13.05 0 23.55-10.92 23.55-23.55-0.1-12.95-10.92-23.55-23.65-23.55zM406.34 674.79h229.79c22.7 0 41.27 18.57 41.27 41.27 0 22.7-18.56 41.26-41.27 41.26h-18.46c0.1 0.75 0.1 1.49 0.1 2.12 0 26.42-43.18 47.74-96.54 47.74-53.36 0-96.54-21.32-96.54-47.74 0-0.74 0-1.49 0.1-2.12h-18.46c-22.7 0-41.26-18.57-41.26-41.26 0.01-22.6 18.58-41.27 41.27-41.27z"  horiz-adv-x="1024" />

    
    <glyph glyph-name="dianzan" unicode="&#58908;" d="M948.4 488.8c-29.2 35.5-76.9 35.5-92.6 35.5H730c10.2 55.2 18.9 119.4 0.2 187.1-12.8 46.6-36.3 79.7-72 101.1-18.7 11.2-38.1 16.9-57.8 16.9-51.8 0-90.6-38.4-96.4-95.7-2.2-21.4-4.2-41.7-9.3-59.1-19-63.9-65.4-112.7-108.3-151.8-16-14.4-33.1-40.2-33.3-69.2-0.6-77.6-0.7-155.5-0.7-235.1l-0.1-141.4c-0.2-47.3 25-85.4 67-101.7 22.2-9 45.7-14 70.1-14.7 38.8-0.5 77.8-0.5 114.3-0.5h56.9c37.2 0 74.4 0 111.8-0.4h1.2c43.5 0 77.7 21.7 93.9 59.5l4.8 11.1c11.3 26 22.9 52.9 30.1 82.8 22 90.9 44.9 188.2 63.4 283.8 7.4 37.9 1.6 68.8-17.4 91.8zM216.1 521.5h-11.9c-56.2 0-101.9-45.7-101.9-101.9v-348.4c0-56.2 45.7-101.9 101.9-101.9h11.9c56.2 0 101.9 45.7 101.9 101.9V419.6c0.1 56.2-45.7 101.9-101.9 101.9z"  horiz-adv-x="1024" />

    
    <glyph glyph-name="jiantoujinggao" unicode="&#58921;" d="M53.783273 358.842182H985.6v-46.545455H53.783273zM339.130182 20.689455L25.530182 334.289455 341.690182 650.472727l32.907636-32.907636L91.345455 334.289455l280.692363-280.692364z"  horiz-adv-x="1024" />

    
    <glyph glyph-name="shoucang" unicode="&#59590;" d="M335.008-20.629333c-35.914667-22.314667-82.88-10.773333-104.693333 25.557333a77.333333 77.333333 0 0 0-8.96 57.429333l46.485333 198.24a13.141333 13.141333 0 0 1-4.021333 12.864l-152.16 132.586667c-31.605333 27.52-35.253333 75.648-8.234667 107.733333a75.68 75.68 0 0 0 51.733333 26.752L354.848 556.8c4.352 0.362667 8.245333 3.232 10.026667 7.594667l76.938666 188.170666c16.032 39.2 60.618667 57.92 99.52 41.461334a76.309333 76.309333 0 0 0 40.832-41.461334l76.938667-188.16c1.781333-4.373333 5.674667-7.253333 10.026667-7.605333l199.712-16.277333c41.877333-3.413333 72.885333-40.458667 69.568-82.517334a76.938667 76.938667 0 0 0-26.08-51.978666l-152.16-132.586667c-3.541333-3.082667-5.141333-8.074667-4.021334-12.853333l46.485334-198.24c9.621333-41.013333-15.36-82.336-56.138667-92.224a75.285333 75.285333 0 0 0-57.525333 9.237333l-170.976 106.24a11.296 11.296 0 0 1-12.010667 0l-170.986667-106.24z"  horiz-adv-x="1024" />

    
    <glyph glyph-name="shoucang1" unicode="&#58890;" d="M335.008-20.63c-35.915-22.314-82.88-10.773-104.693 25.558a77.333 77.333 0 0 0-8.96 57.43l46.485 198.24a13.141 13.141 0 0 1-4.021 12.863l-152.16 132.587c-31.606 27.52-35.254 75.648-8.235 107.733a75.68 75.68 0 0 0 51.733 26.752L354.848 556.8c4.352 0.363 8.245 3.232 10.027 7.595l76.938 188.17c16.032 39.2 60.619 57.92 99.52 41.462a76.31 76.31 0 0 0 40.832-41.462l76.939-188.16c1.781-4.373 5.675-7.253 10.027-7.605l199.712-16.277c41.877-3.414 72.885-40.459 69.568-82.518a76.939 76.939 0 0 0-26.08-51.978L760.17 273.44c-3.542-3.083-5.142-8.075-4.022-12.853l46.486-198.24c9.621-41.014-15.36-82.336-56.139-92.224a75.285 75.285 0 0 0-57.525 9.237L517.995 85.6a11.296 11.296 0 0 1-12.011 0L334.997-20.64z m216.779 160.598l170.976-106.24c2.624-1.621 5.717-2.123 8.65-1.408 6.411 1.557 10.56 8.427 8.928 15.424l-46.485 198.24a77.141 77.141 0 0 0 24.277 75.733l152.16 132.576c2.486 2.166 4.054 5.312 4.331 8.747 0.565 7.136-4.49 13.173-10.976 13.696l-199.712 16.288a75.99 75.99 0 0 0-64.064 47.168l-76.939 188.16a12.31 12.31 0 0 1-6.538 6.741c-5.899 2.496-12.726-0.373-15.328-6.741l-76.95-188.16a75.99 75.99 0 0 0-64.064-47.168l-199.701-16.288a11.68 11.68 0 0 1-7.979-4.181 13.227 13.227 0 0 1 1.334-18.262l152.16-132.586a77.141 77.141 0 0 0 24.277-75.734l-46.485-198.229a13.333 13.333 0 0 1 1.514-9.877c3.488-5.792 10.582-7.531 16.064-4.128l170.987 106.229a75.296 75.296 0 0 0 79.563 0z"  horiz-adv-x="1024" />

    
    <glyph glyph-name="xiugai" unicode="&#58932;" d="M541.077692 122.145691c-14.577616-14.577616-34.272906-22.79691-54.58852-23.572315l-203.931547-3.101621c-23.572316 1.860972-41.871876 20.935938-44.508254 44.508254l3.101621 203.931546c0 20.315614 8.839618 40.010904 23.572316 54.588521L645.29214 779.068908l276.354384-276.354384-380.568832-380.568833z m0 0M955.76435 536.98743L679.565046 813.341814l52.107224 52.107224c41.251552 41.251552 108.556717 41.251552 149.96335 0l127.011359-127.011358c41.251552-41.251552 41.251552-108.556717 0-149.96335l-52.882629-51.4869z m0 0M1006.010601-128h-688.559745c-43.88793 0-79.401484 35.513554-79.401485 79.401484 0 43.88793 35.513554 79.401484 79.401485 79.401484h687.939421c43.88793 0 79.401484-35.513554 79.401484-79.401484 0-43.88793-34.89323-79.401484-78.78116-79.401484z m0 0"  horiz-adv-x="1291" />

    
    <glyph glyph-name="dianzan1" unicode="&#58886;" d="M1023.219 397.198c0.379-4.71 0.028-9.552-1.249-14.378l-92.086-406.46c-1.293-4.87-3.424-9.29-6.126-13.221-9.863-19.692-24.86-37.108-44.798-49.79-21.006-13.35-44.464-19.584-67.638-19.541v0.255l-591.504 0.248c-2.067-0.307-4.161-0.515-6.316-0.515-2.161 0-4.263 0.208-6.346 0.523l-157.335 0.066c-2.212-0.355-4.462-0.588-6.775-0.588-23.54 0-42.616 19.078-42.616 42.613l0.387 511.61c0 23.538 19.084 42.615 42.624 42.615 1.759 0 3.482-0.137 5.189-0.351l141.427 0.329v0.804c130.127 9.314 233.238 115.991 236.918 247.598-0.328 3.703-0.563 7.425-0.563 11.214 0 68.468 55.501 123.977 123.977 123.977 58.84 0 107.996-41.031 120.693-96.008l0.627 0.081c6.979-31.387 10.784-63.969 10.784-97.452 0-51.626-8.814-101.178-24.941-147.291l237.867-0.257c2.19 0 4.328-0.218 6.432-0.541 40.615-1.596 79.732-22.509 102.774-59.648 14.658-23.618 20.505-50.156 18.594-75.892M85.7-20.404l85.224-0.036 0.321 425.779-85.144-0.19-0.401-425.553z m846.995 448.966c-8.192 13.209-22.662 20.152-37.164 19.37v0.126h-0.108l-300.67 0.312c-23.531 0-42.614 19.086-42.614 42.623 0 6.775 1.628 13.163 4.445 18.851l-0.453 0.373c17.025 31.694 29.409 66.243 36.431 102.689l0.533-0.014s5.667 23.012 5.593 67.148c-0.059 34.964-6.432 66.884-6.432 66.884h-0.321c0.028 0.621 0.096 1.226 0.096 1.854 0 22.004-17.845 39.848-39.849 39.848-22.015 0-39.858-17.843-39.858-39.848 0-0.92 0.081-1.826 0.139-2.731l-0.556-0.008s0.679-33.271-5.964-67.775c-2.821-14.638-6.783-28.289-10.392-39.102a13.562 13.562 0 0 0-0.21 0.101c-35.868-109.66-126.06-194.665-238.779-223.299l-0.408-436.435 555.37-0.226c1.876 0 3.71-0.161 5.52-0.406a39.555 39.555 0 0 1 16.048 5.851c7.14 4.535 12.323 10.971 15.361 18.232l0.11-0.062 88.662 391.339-0.343 0.102c3.543 11.067 2.419 23.553-4.187 34.203"  horiz-adv-x="1024" />

    
    <glyph glyph-name="shiwubang" unicode="&#58945;" d="M543.501322 478.855816l-35.69778-38.95883 60.479621-60.479621 25.809501 23.142734c-3.366177 4.672743-6.854643 9.015089-10.115694 13.968883-5.807674 8.824146-11.439423 17.648292-17.021827 26.386621-7.91663 12.396284-15.625153 24.481481-23.453821 35.940213zM330.897971 246.879248c17.124808-10.759322 32.331603-24.241193 44.92312-39.988636l29.890106 26.80498-45.341479 45.341479-29.471747-32.157823zM64.86273-71.929234l45.446606 40.73739c-6.015781 5.981454-11.456587 12.486392-16.58416 19.253073l-42.307844-46.161033c-73.50666-80.202542-67.473716-86.394248 13.445398-13.82943zM690.634787 573.499235c6.191706-21.503627 12.97555-44.783668 22.67074-64.019577l208.138715 186.617925c80.936278 72.564817 122.598348 155.348309 93.055802 184.873693-29.542546 29.542546-113.076938-11.544549-186.583598-91.7664l-153.361643-167.347689c1.291548-3.121598 2.668913-6.103743 3.872498-9.381958 4.447473-12.033707 8.214845-25.1294 12.207486-38.975994zM123.353539-19.505697c29.107024-28.58354 68.954062-46.283322 112.883849-46.283322 88.958034 0 161.3126 72.354566 161.3126 161.3126 0 37.632956-13.061367 72.215113-34.738773 99.68303a162.258734 162.258734 0 0 1-43.912624 38.574798c-24.204721 14.526694-52.421392 23.054771-82.661203 23.054772-88.958034 0-161.3126-72.354566-161.3126-161.3126 0-35.262258 11.510222-67.804112 30.763295-94.381677 5.352843-7.358819 11.194844-14.301424 17.665456-20.647601zM372.158845 291.888186l46.562228-46.562228 88.172808-88.172807c17.875708-17.875708 41.314511-26.822143 64.734005-26.822143 23.438803 0 46.858297 8.946436 64.734004 26.822143 35.751415 35.751415 35.751415 93.718739 0 129.487318l-81.110058 81.110058-59.256726 59.258872-94.433167 94.433167c-17.875708 17.875708-41.314511 26.822143-64.734005 26.822143-23.438803 0-46.858297-8.946436-64.734004-26.822143-35.751415-35.751415-35.751415-93.718739 0-129.487318l100.064915-100.067062zM388.605698 583.891689c1.010497 0 2.057466 0.034327 3.138761 0.12229a209.194266 209.194266 0 0 0 15.590827 0.611447c72.163622 0 112.343201-40.754554 148.216906-92.603117 14.404405-20.823526 28.148018-43.38914 42.970781-65.886099 2.737566-4.168567 5.702548-7.91663 8.545241-11.911418 48.707656-68.657993 110.581805-111.122453 197.411574-117.959932a40.570047 40.570047 0 0 1 3.243888-0.12229c41.61058 0 40.196742 66.478238-3.243888 69.878742-22.582777 1.77856-42.046102 7.481108-59.398325 15.869732 36.098975-8.997926 76.104774-9.888279 114.628083-10.044895h0.17378c44.817995 0 44.732178 69.565509-0.17378 69.756452h-2.214082c-11.160517 0-22.932482-0.330396-34.861063-0.330396-36.972164 0-75.495472 3.104435-102.386269 28.566377-8.092555 7.654888-14.68331 17.141971-20.351532 27.60737-17.944361 33.151156-25.985426 76.836365-37.826044 109.03066-0.156616 0.418358-0.330396 0.80239-0.489158 1.220749-30.41359 81.232347-91.468185 113.319371-173.363469 132.014632a39.426534 39.426534 0 0 1-8.66753 1.010497c-37.390522 0-50.696468-58.962803-9.871115-68.273961 48.201335-11.003901 92.532318-22.426161 117.820479-68.065855 9.225341-16.654959 16.148638-34.650811 22.443324-53.015676a1760.69713 1760.69713 0 0 0 9.609373-28.967571 949.931237 949.931237 0 0 1-15.189631 22.880991c-0.836717 1.237912-1.639107 2.512296-2.475824 3.750209-46.999895 67.786949-109.517673 105.542194-189.77385 105.542194-6.661555 0-13.445398-0.261742-20.351532-0.785227-43.511429-3.329705-44.87163-69.895905-3.155925-69.895905z"  horiz-adv-x="1024" />

    


  </font>
</defs>
</svg>
